<?xml version="1.0" encoding="UTF-8"?>
<svg id="Layer_1" data-name="Layer 1" xmlns="http://www.w3.org/2000/svg" viewBox="0 0 826 649">
  <defs>
    <style>
      .cls-1 {
        fill: #04d939;
      }
    </style>
  </defs>
  <g>
    <path class="cls-1" d="m354.32,237.24c13.74-6.8,25.25-17.08,33.41-30.84l-70.9,51.11c44.17,3.76,68.02,25.33,68.02,69.04,0,48.91-29.22,70.17-82.86,70.17h-107.72v-50.87l-32.27,23.26v60.04h140.42c76.32,0,114.7-36.15,114.7-99.41,0-50.5-23.55-81.87-62.8-92.5Zm-192.32,80.09v36.99l32.27-23.27v-36.98l-32.27,23.26ZM293.7,57.02h-131.7v245.51l32.27-23.26v-22.36h31.02l45-32.43h-76.02V89.45h97.25c47.59,0,75.72,21.7,77.13,64.13l30.57-22.04c-8.32-47.53-45.85-74.52-105.52-74.52Zm107.07,88.2l-32.79,23.63c-4.72,36.82-32.16,55.63-76.46,55.63h-.71l-44.99,32.43h51.31l99.64-71.83c2.74-9.66,4.21-20.45,4.21-32.37,0-2.54-.07-5.04-.21-7.49Z"/>
    <path class="cls-1" d="m452.92,391.18v36.99l32.54-23.46v-36.98l-32.54,23.45Zm0-106.01v91.22l32.54-23.46v-39.61h54.96l39.05-28.15h-126.55Zm147.07,0l-39.05,28.15h51.31l39.05-28.15h-51.31Zm-114.53,149.08v-14.74l-32.54,23.45v150.04h32.54v-130.61h159.19v-28.14h-159.19Zm147.31-120.93h31.23v-22.51l-31.23,22.51Z"/>
  </g>
  <path class="cls-1" d="m800.65,9c9.01,0,16.35,7.33,16.35,16.35v598.3c0,9.01-7.33,16.35-16.35,16.35H25.35c-9.01,0-16.35-7.33-16.35-16.35V25.35c0-9.01,7.33-16.35,16.35-16.35h775.3m0-9H25.35C11.35,0,0,11.35,0,25.35v598.3c0,14,11.35,25.35,25.35,25.35h775.3c14,0,25.35-11.35,25.35-25.35V25.35c0-14-11.35-25.35-25.35-25.35h0Z"/>
</svg>